<svg xmlns="http://www.w3.org/2000/svg" xmlns:xlink="http://www.w3.org/1999/xlink" width="580" height="363.94"><rect width="580" height="363.94" rx="5" ry="5" class="a"/><svg y="0%" x="0%"><circle cx="20" cy="20" r="6" fill="#ff5f58"/><circle cx="40" cy="20" r="6" fill="#ffbd2e"/><circle cx="60" cy="20" r="6" fill="#18c132"/></svg><svg height="303.94" viewBox="0 0 54 30.394" width="540" x="15" xmlns="http://www.w3.org/2000/svg" xmlns:xlink="http://www.w3.org/1999/xlink" y="50"><style>@keyframes m{0%{transform:translateX(0)}1.99%{transform:translateX(-108px)}2%{transform:translateX(-270px)}2.04%{transform:translateX(-324px)}15.12%{transform:translateX(-378px)}15.6%{transform:translateX(-432px)}16.45%{transform:translateX(-486px)}16.98%{transform:translateX(-540px)}17.53%{transform:translateX(-594px)}17.73%{transform:translateX(-648px)}18.78%{transform:translateX(-702px)}20.13%{transform:translateX(-756px)}20.68%{transform:translateX(-810px)}25.13%{transform:translateX(-864px)}25.59%{transform:translateX(-918px)}26.21%{transform:translateX(-972px)}26.92%{transform:translateX(-1026px)}27.21%{transform:translateX(-1080px)}27.51%{transform:translateX(-1134px)}29.27%{transform:translateX(-1188px)}29.78%{transform:translateX(-1242px)}30.32%{transform:translateX(-1296px)}30.75%{transform:translateX(-1350px)}31.25%{transform:translateX(-1404px)}32.26%{transform:translateX(-1458px)}32.84%{transform:translateX(-1512px)}33.55%{transform:translateX(-1566px)}35.29%{transform:translateX(-1620px)}35.3%{transform:translateX(-1782px)}35.33%{transform:translateX(-1836px)}39.66%{transform:translateX(-1890px)}40.78%{transform:translateX(-1944px)}41.92%{transform:translateX(-1998px)}41.93%{transform:translateX(-2052px)}41.96%{transform:translateX(-2214px)}42.02%{transform:translateX(-2268px)}42.03%{transform:translateX(-2322px)}47.81%{transform:translateX(-2376px)}48.38%{transform:translateX(-2430px)}48.99%{transform:translateX(-2484px)}53.6%{transform:translateX(-2538px)}54.77%{transform:translateX(-2592px)}55.32%{transform:translateX(-2646px)}55.54%{transform:translateX(-2700px)}57.84%{transform:translateX(-2754px)}59.87%{transform:translateX(-2808px)}60.46%{transform:translateX(-2862px)}60.68%{transform:translateX(-2916px)}61.37%{transform:translateX(-2970px)}62.6%{transform:translateX(-3024px)}64.15%{transform:translateX(-3078px)}64.44%{transform:translateX(-3132px)}65.08%{transform:translateX(-3186px)}65.17%{transform:translateX(-3240px)}65.74%{transform:translateX(-3294px)}66.17%{transform:translateX(-3348px)}66.33%{transform:translateX(-3402px)}67.15%{transform:translateX(-3456px)}68.48%{transform:translateX(-3510px)}69.22%{transform:translateX(-3564px)}69.62%{transform:translateX(-3618px)}70.19%{transform:translateX(-3672px)}70.55%{transform:translateX(-3726px)}70.79%{transform:translateX(-3780px)}71.38%{transform:translateX(-3834px)}71.72%{transform:translateX(-3888px)}72.22%{transform:translateX(-3942px)}72.52%{transform:translateX(-3996px)}72.71%{transform:translateX(-4050px)}74.12%{transform:translateX(-4104px)}74.57%{transform:translateX(-4158px)}75.08%{transform:translateX(-4212px)}75.55%{transform:translateX(-4266px)}75.72%{transform:translateX(-4320px)}76%{transform:translateX(-4374px)}77.98%{transform:translateX(-4428px)}78.54%{transform:translateX(-4482px)}79.12%{transform:translateX(-4536px)}79.48%{transform:translateX(-4590px)}80.04%{transform:translateX(-4644px)}80.9%{transform:translateX(-4698px)}81.57%{transform:translateX(-4752px)}82.42%{transform:translateX(-4806px)}83.44%{transform:translateX(-4860px)}83.45%{transform:translateX(-4968px)}85.82%{transform:translateX(-5022px)}85.98%{transform:translateX(-5130px)}86.01%{transform:translateX(-5292px)}86.03%{transform:translateX(-5346px)}91.26%{transform:translateX(-5400px)}91.99%{transform:translateX(-5454px)}94.55%{transform:translateX(-5508px)}94.56%{transform:translateX(-5616px)}94.59%{transform:translateX(-5670px)}94.6%{transform:translateX(-5778px)}94.61%{transform:translateX(-5832px)}94.63%{transform:translateX(-5994px)}94.67%{transform:translateX(-6048px)}to{transform:translateX(-6102px)}}.a{fill:#282d35}.f{fill:#b9bfca}.g{fill:#71bef2}.h{fill:#a8cc8c}.i{fill:#66c2cd}.j{fill:#b9c0cb}.o{fill:#e88388;font-weight:700}</style><g font-size="1.67" font-family="Monaco,Consolas,Menlo,'Bitstream Vera Sans Mono','Powerline Symbols',monospace"><defs><symbol id="1"><text x="1.002" y="1.67" class="f">▲</text><text x="3.006" y="1.67" class="g">~</text></symbol><symbol id="2"><text x="1.002" y="1.67" class="f">▲</text><text x="3.006" y="1.67" class="g">~</text><text x="5.01" y="1.67" class="h">mfaws</text></symbol><symbol id="3"><text x="1.002" y="1.67" class="f">▲</text><text x="3.006" y="1.67" class="g">~</text><text x="5.01" y="1.67" class="h">mfaws</text><text x="11.022" y="1.67" class="i">-p</text></symbol><symbol id="4"><text x="1.002" y="1.67" class="f">▲</text><text x="3.006" y="1.67" class="g">~</text><text x="5.01" y="1.67" class="h">mfaws</text><text x="11.022" y="1.67" class="i">-p</text><text x="14.028" y="1.67" class="j">devops-sandbox</text></symbol><symbol id="5"><text y="1.67" class="j">Assume</text><text x="7.014" y="1.67" class="j">Role</text><text x="12.024" y="1.67" class="j">MFA</text><text x="16.032" y="1.67" class="j">token</text><text x="22.044" y="1.67" class="j">code:</text><text x="28.056" y="1.67" class="j">224176</text></symbol><symbol id="6"><text x="1.002" y="1.67" class="f">▲</text><text x="3.006" y="1.67" class="g">~</text><text x="5.01" y="1.67" class="h">aws</text></symbol><symbol id="7"><text x="1.002" y="1.67" class="f">▲</text><text x="3.006" y="1.67" class="g">~</text><text x="5.01" y="1.67" class="h">aws</text><text x="9.018" y="1.67" class="j">eks</text></symbol><symbol id="8"><text x="1.002" y="1.67" class="f">▲</text><text x="3.006" y="1.67" class="g">~</text><text x="5.01" y="1.67" class="h">aws</text><text x="9.018" y="1.67" class="j">eks</text><text x="13.026" y="1.67" class="j">list-clusters</text></symbol><symbol id="9"><text x="1.002" y="1.67" class="f">▲</text><text x="3.006" y="1.67" class="g">~</text><text x="5.01" y="1.67" class="h">aws</text><text x="9.018" y="1.67" class="j">eks</text><text x="13.026" y="1.67" class="j">list-clusters</text><text x="27.054" y="1.67" class="i">--profile</text></symbol><symbol id="10"><text x="1.002" y="1.67" class="f">▲</text><text x="3.006" y="1.67" class="g">~</text><text x="5.01" y="1.67" class="h">aws</text><text x="9.018" y="1.67" class="j">eks</text><text x="13.026" y="1.67" class="j">list-clusters</text><text x="27.054" y="1.67" class="i">--profile</text><text x="37.074" y="1.67" class="j">devops-sandbox</text></symbol><symbol id="11"><text y="1.67" class="j">{</text></symbol><symbol id="12"><text x="4.008" y="1.67" class="j">&quot;clusters&quot;:</text><text x="16.032" y="1.67" class="j">[</text></symbol><symbol id="13"><text x="8.016" y="1.67" class="j">&quot;int-eks&quot;,</text></symbol><symbol id="14"><text x="8.016" y="1.67" class="j">&quot;sbx-eks&quot;</text></symbol><symbol id="15"><text x="4.008" y="1.67" class="j">]</text></symbol><symbol id="16"><text y="1.67" class="j">}</text></symbol><symbol id="17"><text y="1.67" class="j">Your</text><text x="5.01" y="1.67" class="j">credentials</text><text x="17.034" y="1.67" class="j">are</text><text x="21.042" y="1.67" class="j">still</text><text x="27.054" y="1.67" class="j">valid</text><text x="33.066" y="1.67" class="j">for</text><text x="37.074" y="1.67" class="j">3582</text><text x="42.084" y="1.67" class="j">seconds</text></symbol><symbol id="a"><path fill="transparent" d="M0 0h54v14H0z"/></symbol><symbol id="b"><path fill="#6f7683" d="M0 0h1.102v2.171H0z"/></symbol></defs><path class="a" d="M0 0h54v30.394H0z"/><g style="animation-duration:33.627521s;animation-iteration-count:infinite;animation-name:m;animation-timing-function:steps(1,end)"><svg width="6156"><svg><use xlink:href="#a"/><use xlink:href="#b" x="-.004"/></svg><svg x="54"><use xlink:href="#a"/><use xlink:href="#b" x="-.004"/></svg><svg x="108"><use xlink:href="#a"/><use xlink:href="#b" x="-.004"/></svg><svg x="162"><use xlink:href="#a"/><use xlink:href="#b" x="4.996" y="2.146"/><use xlink:href="#1" y="2.171"/></svg><svg x="216"><use xlink:href="#a"/><use xlink:href="#b" x="4.996" y="2.146"/><use xlink:href="#1" y="2.171"/></svg><svg x="270"><use xlink:href="#a"/><use xlink:href="#b" x="4.996" y="2.146"/><use xlink:href="#1" y="2.171"/></svg><svg x="324"><use xlink:href="#a"/><use xlink:href="#b" x="4.996" y="2.146"/><use xlink:href="#1" y="2.171"/></svg><svg x="378"><use xlink:href="#a"/><use xlink:href="#b" x="5.996" y="2.146"/><text x="1.002" y="3.841" class="f">▲</text><text x="3.006" y="3.841" class="g">~</text><text x="5.01" y="3.841" class="o">m</text></svg><svg x="432"><use xlink:href="#a"/><use xlink:href="#b" x="6.996" y="2.146"/><text x="1.002" y="3.841" class="f">▲</text><text x="3.006" y="3.841" class="g">~</text><text x="5.01" y="3.841" class="o">mf</text></svg><svg x="486"><use xlink:href="#a"/><use xlink:href="#b" x="7.996" y="2.146"/><text x="1.002" y="3.841" class="f">▲</text><text x="3.006" y="3.841" class="g">~</text><text x="5.01" y="3.841" class="o">mfa</text></svg><svg x="540"><use xlink:href="#a"/><use xlink:href="#b" x="8.996" y="2.146"/><text x="1.002" y="3.841" class="f">▲</text><text x="3.006" y="3.841" class="g">~</text><text x="5.01" y="3.841" class="o">mfaw</text></svg><svg x="594"><use xlink:href="#a"/><use xlink:href="#b" x="9.996" y="2.146"/><use xlink:href="#2" y="2.171"/></svg><svg x="648"><use xlink:href="#a"/><use xlink:href="#b" x="10.996" y="2.146"/><use xlink:href="#2" y="2.171"/></svg><svg x="702"><use xlink:href="#a"/><use xlink:href="#b" x="11.996" y="2.146"/><text x="1.002" y="3.841" class="f">▲</text><text x="3.006" y="3.841" class="g">~</text><text x="5.01" y="3.841" class="h">mfaws</text><text x="11.022" y="3.841" class="i">-</text></svg><svg x="756"><use xlink:href="#a"/><use xlink:href="#b" x="12.996" y="2.146"/><use xlink:href="#3" y="2.171"/></svg><svg x="810"><use xlink:href="#a"/><use xlink:href="#b" x="13.996" y="2.146"/><use xlink:href="#3" y="2.171"/></svg><svg x="864"><use xlink:href="#a"/><use xlink:href="#b" x="14.996" y="2.146"/><text x="1.002" y="3.841" class="f">▲</text><text x="3.006" y="3.841" class="g">~</text><text x="5.01" y="3.841" class="h">mfaws</text><text x="11.022" y="3.841" class="i">-p</text><text x="14.028" y="3.841" class="j">d</text></svg><svg x="918"><use xlink:href="#a"/><use xlink:href="#b" x="15.996" y="2.146"/><text x="1.002" y="3.841" class="f">▲</text><text x="3.006" y="3.841" class="g">~</text><text x="5.01" y="3.841" class="h">mfaws</text><text x="11.022" y="3.841" class="i">-p</text><text x="14.028" y="3.841" class="j">de</text></svg><svg x="972"><use xlink:href="#a"/><use xlink:href="#b" x="16.996" y="2.146"/><text x="1.002" y="3.841" class="f">▲</text><text x="3.006" y="3.841" class="g">~</text><text x="5.01" y="3.841" class="h">mfaws</text><text x="11.022" y="3.841" class="i">-p</text><text x="14.028" y="3.841" class="j">dev</text></svg><svg x="1026"><use xlink:href="#a"/><use xlink:href="#b" x="17.996" y="2.146"/><text x="1.002" y="3.841" class="f">▲</text><text x="3.006" y="3.841" class="g">~</text><text x="5.01" y="3.841" class="h">mfaws</text><text x="11.022" y="3.841" class="i">-p</text><text x="14.028" y="3.841" class="j">devo</text></svg><svg x="1080"><use xlink:href="#a"/><use xlink:href="#b" x="18.996" y="2.146"/><text x="1.002" y="3.841" class="f">▲</text><text x="3.006" y="3.841" class="g">~</text><text x="5.01" y="3.841" class="h">mfaws</text><text x="11.022" y="3.841" class="i">-p</text><text x="14.028" y="3.841" class="j">devop</text></svg><svg x="1134"><use xlink:href="#a"/><use xlink:href="#b" x="19.996" y="2.146"/><text x="1.002" y="3.841" class="f">▲</text><text x="3.006" y="3.841" class="g">~</text><text x="5.01" y="3.841" class="h">mfaws</text><text x="11.022" y="3.841" class="i">-p</text><text x="14.028" y="3.841" class="j">devops</text></svg><svg x="1188"><use xlink:href="#a"/><use xlink:href="#b" x="20.996" y="2.146"/><text x="1.002" y="3.841" class="f">▲</text><text x="3.006" y="3.841" class="g">~</text><text x="5.01" y="3.841" class="h">mfaws</text><text x="11.022" y="3.841" class="i">-p</text><text x="14.028" y="3.841" class="j">devops-</text></svg><svg x="1242"><use xlink:href="#a"/><use xlink:href="#b" x="21.996" y="2.146"/><text x="1.002" y="3.841" class="f">▲</text><text x="3.006" y="3.841" class="g">~</text><text x="5.01" y="3.841" class="h">mfaws</text><text x="11.022" y="3.841" class="i">-p</text><text x="14.028" y="3.841" class="j">devops-s</text></svg><svg x="1296"><use xlink:href="#a"/><use xlink:href="#b" x="22.996" y="2.146"/><text x="1.002" y="3.841" class="f">▲</text><text x="3.006" y="3.841" class="g">~</text><text x="5.01" y="3.841" class="h">mfaws</text><text x="11.022" y="3.841" class="i">-p</text><text x="14.028" y="3.841" class="j">devops-sa</text></svg><svg x="1350"><use xlink:href="#a"/><use xlink:href="#b" x="23.996" y="2.146"/><text x="1.002" y="3.841" class="f">▲</text><text x="3.006" y="3.841" class="g">~</text><text x="5.01" y="3.841" class="h">mfaws</text><text x="11.022" y="3.841" class="i">-p</text><text x="14.028" y="3.841" class="j">devops-san</text></svg><svg x="1404"><use xlink:href="#a"/><use xlink:href="#b" x="24.996" y="2.146"/><text x="1.002" y="3.841" class="f">▲</text><text x="3.006" y="3.841" class="g">~</text><text x="5.01" y="3.841" class="h">mfaws</text><text x="11.022" y="3.841" class="i">-p</text><text x="14.028" y="3.841" class="j">devops-sand</text></svg><svg x="1458"><use xlink:href="#a"/><use xlink:href="#b" x="25.996" y="2.146"/><text x="1.002" y="3.841" class="f">▲</text><text x="3.006" y="3.841" class="g">~</text><text x="5.01" y="3.841" class="h">mfaws</text><text x="11.022" y="3.841" class="i">-p</text><text x="14.028" y="3.841" class="j">devops-sandb</text></svg><svg x="1512"><use xlink:href="#a"/><use xlink:href="#b" x="26.996" y="2.146"/><text x="1.002" y="3.841" class="f">▲</text><text x="3.006" y="3.841" class="g">~</text><text x="5.01" y="3.841" class="h">mfaws</text><text x="11.022" y="3.841" class="i">-p</text><text x="14.028" y="3.841" class="j">devops-sandbo</text></svg><svg x="1566"><use xlink:href="#a"/><use xlink:href="#b" x="27.996" y="2.146"/><use xlink:href="#4" y="2.171"/></svg><svg x="1620"><use xlink:href="#a"/><use xlink:href="#b" x="27.996" y="2.146"/><use xlink:href="#4" y="2.171"/></svg><svg x="1674"><use xlink:href="#a"/><use xlink:href="#b" x="-.004" y="4.317"/><use xlink:href="#4" y="2.171"/></svg><svg x="1728"><use xlink:href="#a"/><use xlink:href="#b" x="-.004" y="4.317"/><use xlink:href="#4" y="2.171"/></svg><svg x="1782"><use xlink:href="#a"/><use xlink:href="#b" x="-.004" y="4.317"/><use xlink:href="#4" y="2.171"/></svg><svg x="1836"><use xlink:href="#a"/><use xlink:href="#b" x="27.996" y="4.317"/><use xlink:href="#4" y="2.171"/><text y="6.012" class="j">Assume</text><text x="7.014" y="6.012" class="j">Role</text><text x="12.024" y="6.012" class="j">MFA</text><text x="16.032" y="6.012" class="j">token</text><text x="22.044" y="6.012" class="j">code:</text></svg><svg x="1890"><use xlink:href="#a"/><use xlink:href="#b" x="33.996" y="4.317"/><use xlink:href="#4" y="2.171"/><use xlink:href="#5" y="4.342"/></svg><svg x="1944"><use xlink:href="#a"/><use xlink:href="#b" x="-.004" y="6.488"/><use xlink:href="#4" y="2.171"/><use xlink:href="#5" y="4.342"/></svg><svg x="1998"><use xlink:href="#a"/><use xlink:href="#b" x="-.004" y="6.488"/><use xlink:href="#4" y="2.171"/><use xlink:href="#5" y="4.342"/></svg><svg x="2052"><use xlink:href="#a"/><use xlink:href="#b" x="-.004" y="6.488"/><use xlink:href="#4" y="2.171"/><use xlink:href="#5" y="4.342"/></svg><svg x="2106"><use xlink:href="#a"/><use xlink:href="#b" x="4.996" y="8.659"/><use xlink:href="#4" y="2.171"/><use xlink:href="#5" y="4.342"/><use xlink:href="#1" y="8.684"/></svg><svg x="2160"><use xlink:href="#a"/><use xlink:href="#b" x="4.996" y="8.659"/><use xlink:href="#4" y="2.171"/><use xlink:href="#5" y="4.342"/><use xlink:href="#1" y="8.684"/></svg><svg x="2214"><use xlink:href="#a"/><use xlink:href="#b" x="4.996" y="8.659"/><use xlink:href="#4" y="2.171"/><use xlink:href="#5" y="4.342"/><use xlink:href="#1" y="8.684"/></svg><svg x="2268"><use xlink:href="#a"/><use xlink:href="#b" x="4.996" y="8.659"/><use xlink:href="#4" y="2.171"/><use xlink:href="#5" y="4.342"/><use xlink:href="#1" y="8.684"/></svg><svg x="2322"><use xlink:href="#a"/><use xlink:href="#b" x="4.996" y="8.659"/><use xlink:href="#4" y="2.171"/><use xlink:href="#5" y="4.342"/><use xlink:href="#1" y="8.684"/></svg><svg x="2376"><use xlink:href="#a"/><use xlink:href="#b" x="5.996" y="8.659"/><use xlink:href="#4" y="2.171"/><use xlink:href="#5" y="4.342"/><text x="1.002" y="10.354" class="f">▲</text><text x="3.006" y="10.354" class="g">~</text><text x="5.01" y="10.354" class="o">a</text></svg><svg x="2430"><use xlink:href="#a"/><use xlink:href="#b" x="6.996" y="8.659"/><use xlink:href="#4" y="2.171"/><use xlink:href="#5" y="4.342"/><text x="1.002" y="10.354" class="f">▲</text><text x="3.006" y="10.354" class="g">~</text><text x="5.01" y="10.354" class="o">aw</text></svg><svg x="2484"><use xlink:href="#a"/><use xlink:href="#b" x="7.996" y="8.659"/><use xlink:href="#4" y="2.171"/><use xlink:href="#5" y="4.342"/><use xlink:href="#6" y="8.684"/></svg><svg x="2538"><use xlink:href="#a"/><use xlink:href="#b" x="8.996" y="8.659"/><use xlink:href="#4" y="2.171"/><use xlink:href="#5" y="4.342"/><use xlink:href="#6" y="8.684"/></svg><svg x="2592"><use xlink:href="#a"/><use xlink:href="#b" x="9.996" y="8.659"/><use xlink:href="#4" y="2.171"/><use xlink:href="#5" y="4.342"/><text x="1.002" y="10.354" class="f">▲</text><text x="3.006" y="10.354" class="g">~</text><text x="5.01" y="10.354" class="h">aws</text><text x="9.018" y="10.354" class="j">e</text></svg><svg x="2646"><use xlink:href="#a"/><use xlink:href="#b" x="10.996" y="8.659"/><use xlink:href="#4" y="2.171"/><use xlink:href="#5" y="4.342"/><text x="1.002" y="10.354" class="f">▲</text><text x="3.006" y="10.354" class="g">~</text><text x="5.01" y="10.354" class="h">aws</text><text x="9.018" y="10.354" class="j">ek</text></svg><svg x="2700"><use xlink:href="#a"/><use xlink:href="#b" x="11.996" y="8.659"/><use xlink:href="#4" y="2.171"/><use xlink:href="#5" y="4.342"/><use xlink:href="#7" y="8.684"/></svg><svg x="2754"><use xlink:href="#a"/><use xlink:href="#b" x="12.996" y="8.659"/><use xlink:href="#4" y="2.171"/><use xlink:href="#5" y="4.342"/><use xlink:href="#7" y="8.684"/></svg><svg x="2808"><use xlink:href="#a"/><use xlink:href="#b" x="13.996" y="8.659"/><use xlink:href="#4" y="2.171"/><use xlink:href="#5" y="4.342"/><text x="1.002" y="10.354" class="f">▲</text><text x="3.006" y="10.354" class="g">~</text><text x="5.01" y="10.354" class="h">aws</text><text x="9.018" y="10.354" class="j">eks</text><text x="13.026" y="10.354" class="j">l</text></svg><svg x="2862"><use xlink:href="#a"/><use xlink:href="#b" x="14.996" y="8.659"/><use xlink:href="#4" y="2.171"/><use xlink:href="#5" y="4.342"/><text x="1.002" y="10.354" class="f">▲</text><text x="3.006" y="10.354" class="g">~</text><text x="5.01" y="10.354" class="h">aws</text><text x="9.018" y="10.354" class="j">eks</text><text x="13.026" y="10.354" class="j">li</text></svg><svg x="2916"><use xlink:href="#a"/><use xlink:href="#b" x="15.996" y="8.659"/><use xlink:href="#4" y="2.171"/><use xlink:href="#5" y="4.342"/><text x="1.002" y="10.354" class="f">▲</text><text x="3.006" y="10.354" class="g">~</text><text x="5.01" y="10.354" class="h">aws</text><text x="9.018" y="10.354" class="j">eks</text><text x="13.026" y="10.354" class="j">lis</text></svg><svg x="2970"><use xlink:href="#a"/><use xlink:href="#b" x="16.996" y="8.659"/><use xlink:href="#4" y="2.171"/><use xlink:href="#5" y="4.342"/><text x="1.002" y="10.354" class="f">▲</text><text x="3.006" y="10.354" class="g">~</text><text x="5.01" y="10.354" class="h">aws</text><text x="9.018" y="10.354" class="j">eks</text><text x="13.026" y="10.354" class="j">list</text></svg><svg x="3024"><use xlink:href="#a"/><use xlink:href="#b" x="17.996" y="8.659"/><use xlink:href="#4" y="2.171"/><use xlink:href="#5" y="4.342"/><text x="1.002" y="10.354" class="f">▲</text><text x="3.006" y="10.354" class="g">~</text><text x="5.01" y="10.354" class="h">aws</text><text x="9.018" y="10.354" class="j">eks</text><text x="13.026" y="10.354" class="j">list-</text></svg><svg x="3078"><use xlink:href="#a"/><use xlink:href="#b" x="18.996" y="8.659"/><use xlink:href="#4" y="2.171"/><use xlink:href="#5" y="4.342"/><text x="1.002" y="10.354" class="f">▲</text><text x="3.006" y="10.354" class="g">~</text><text x="5.01" y="10.354" class="h">aws</text><text x="9.018" y="10.354" class="j">eks</text><text x="13.026" y="10.354" class="j">list-c</text></svg><svg x="3132"><use xlink:href="#a"/><use xlink:href="#b" x="19.996" y="8.659"/><use xlink:href="#4" y="2.171"/><use xlink:href="#5" y="4.342"/><text x="1.002" y="10.354" class="f">▲</text><text x="3.006" y="10.354" class="g">~</text><text x="5.01" y="10.354" class="h">aws</text><text x="9.018" y="10.354" class="j">eks</text><text x="13.026" y="10.354" class="j">list-cl</text></svg><svg x="3186"><use xlink:href="#a"/><use xlink:href="#b" x="20.996" y="8.659"/><use xlink:href="#4" y="2.171"/><use xlink:href="#5" y="4.342"/><text x="1.002" y="10.354" class="f">▲</text><text x="3.006" y="10.354" class="g">~</text><text x="5.01" y="10.354" class="h">aws</text><text x="9.018" y="10.354" class="j">eks</text><text x="13.026" y="10.354" class="j">list-clu</text></svg><svg x="3240"><use xlink:href="#a"/><use xlink:href="#b" x="21.996" y="8.659"/><use xlink:href="#4" y="2.171"/><use xlink:href="#5" y="4.342"/><text x="1.002" y="10.354" class="f">▲</text><text x="3.006" y="10.354" class="g">~</text><text x="5.01" y="10.354" class="h">aws</text><text x="9.018" y="10.354" class="j">eks</text><text x="13.026" y="10.354" class="j">list-clus</text></svg><svg x="3294"><use xlink:href="#a"/><use xlink:href="#b" x="22.996" y="8.659"/><use xlink:href="#4" y="2.171"/><use xlink:href="#5" y="4.342"/><text x="1.002" y="10.354" class="f">▲</text><text x="3.006" y="10.354" class="g">~</text><text x="5.01" y="10.354" class="h">aws</text><text x="9.018" y="10.354" class="j">eks</text><text x="13.026" y="10.354" class="j">list-clust</text></svg><svg x="3348"><use xlink:href="#a"/><use xlink:href="#b" x="23.996" y="8.659"/><use xlink:href="#4" y="2.171"/><use xlink:href="#5" y="4.342"/><text x="1.002" y="10.354" class="f">▲</text><text x="3.006" y="10.354" class="g">~</text><text x="5.01" y="10.354" class="h">aws</text><text x="9.018" y="10.354" class="j">eks</text><text x="13.026" y="10.354" class="j">list-cluste</text></svg><svg x="3402"><use xlink:href="#a"/><use xlink:href="#b" x="24.996" y="8.659"/><use xlink:href="#4" y="2.171"/><use xlink:href="#5" y="4.342"/><text x="1.002" y="10.354" class="f">▲</text><text x="3.006" y="10.354" class="g">~</text><text x="5.01" y="10.354" class="h">aws</text><text x="9.018" y="10.354" class="j">eks</text><text x="13.026" y="10.354" class="j">list-cluster</text></svg><svg x="3456"><use xlink:href="#a"/><use xlink:href="#b" x="25.996" y="8.659"/><use xlink:href="#4" y="2.171"/><use xlink:href="#5" y="4.342"/><use xlink:href="#8" y="8.684"/></svg><svg x="3510"><use xlink:href="#a"/><use xlink:href="#b" x="26.996" y="8.659"/><use xlink:href="#4" y="2.171"/><use xlink:href="#5" y="4.342"/><use xlink:href="#8" y="8.684"/></svg><svg x="3564"><use xlink:href="#a"/><use xlink:href="#b" x="27.996" y="8.659"/><use xlink:href="#4" y="2.171"/><use xlink:href="#5" y="4.342"/><text x="1.002" y="10.354" class="f">▲</text><text x="3.006" y="10.354" class="g">~</text><text x="5.01" y="10.354" class="h">aws</text><text x="9.018" y="10.354" class="j">eks</text><text x="13.026" y="10.354" class="j">list-clusters</text><text x="27.054" y="10.354" class="i">-</text></svg><svg x="3618"><use xlink:href="#a"/><use xlink:href="#b" x="28.996" y="8.659"/><use xlink:href="#4" y="2.171"/><use xlink:href="#5" y="4.342"/><text x="1.002" y="10.354" class="f">▲</text><text x="3.006" y="10.354" class="g">~</text><text x="5.01" y="10.354" class="h">aws</text><text x="9.018" y="10.354" class="j">eks</text><text x="13.026" y="10.354" class="j">list-clusters</text><text x="27.054" y="10.354" class="i">--</text></svg><svg x="3672"><use xlink:href="#a"/><use xlink:href="#b" x="29.996" y="8.659"/><use xlink:href="#4" y="2.171"/><use xlink:href="#5" y="4.342"/><text x="1.002" y="10.354" class="f">▲</text><text x="3.006" y="10.354" class="g">~</text><text x="5.01" y="10.354" class="h">aws</text><text x="9.018" y="10.354" class="j">eks</text><text x="13.026" y="10.354" class="j">list-clusters</text><text x="27.054" y="10.354" class="i">--p</text></svg><svg x="3726"><use xlink:href="#a"/><use xlink:href="#b" x="30.996" y="8.659"/><use xlink:href="#4" y="2.171"/><use xlink:href="#5" y="4.342"/><text x="1.002" y="10.354" class="f">▲</text><text x="3.006" y="10.354" class="g">~</text><text x="5.01" y="10.354" class="h">aws</text><text x="9.018" y="10.354" class="j">eks</text><text x="13.026" y="10.354" class="j">list-clusters</text><text x="27.054" y="10.354" class="i">--pr</text></svg><svg x="3780"><use xlink:href="#a"/><use xlink:href="#b" x="31.996" y="8.659"/><use xlink:href="#4" y="2.171"/><use xlink:href="#5" y="4.342"/><text x="1.002" y="10.354" class="f">▲</text><text x="3.006" y="10.354" class="g">~</text><text x="5.01" y="10.354" class="h">aws</text><text x="9.018" y="10.354" class="j">eks</text><text x="13.026" y="10.354" class="j">list-clusters</text><text x="27.054" y="10.354" class="i">--pro</text></svg><svg x="3834"><use xlink:href="#a"/><use xlink:href="#b" x="32.996" y="8.659"/><use xlink:href="#4" y="2.171"/><use xlink:href="#5" y="4.342"/><text x="1.002" y="10.354" class="f">▲</text><text x="3.006" y="10.354" class="g">~</text><text x="5.01" y="10.354" class="h">aws</text><text x="9.018" y="10.354" class="j">eks</text><text x="13.026" y="10.354" class="j">list-clusters</text><text x="27.054" y="10.354" class="i">--prof</text></svg><svg x="3888"><use xlink:href="#a"/><use xlink:href="#b" x="33.996" y="8.659"/><use xlink:href="#4" y="2.171"/><use xlink:href="#5" y="4.342"/><text x="1.002" y="10.354" class="f">▲</text><text x="3.006" y="10.354" class="g">~</text><text x="5.01" y="10.354" class="h">aws</text><text x="9.018" y="10.354" class="j">eks</text><text x="13.026" y="10.354" class="j">list-clusters</text><text x="27.054" y="10.354" class="i">--profi</text></svg><svg x="3942"><use xlink:href="#a"/><use xlink:href="#b" x="34.996" y="8.659"/><use xlink:href="#4" y="2.171"/><use xlink:href="#5" y="4.342"/><text x="1.002" y="10.354" class="f">▲</text><text x="3.006" y="10.354" class="g">~</text><text x="5.01" y="10.354" class="h">aws</text><text x="9.018" y="10.354" class="j">eks</text><text x="13.026" y="10.354" class="j">list-clusters</text><text x="27.054" y="10.354" class="i">--profil</text></svg><svg x="3996"><use xlink:href="#a"/><use xlink:href="#b" x="35.996" y="8.659"/><use xlink:href="#4" y="2.171"/><use xlink:href="#5" y="4.342"/><use xlink:href="#9" y="8.684"/></svg><svg x="4050"><use xlink:href="#a"/><use xlink:href="#b" x="36.996" y="8.659"/><use xlink:href="#4" y="2.171"/><use xlink:href="#5" y="4.342"/><use xlink:href="#9" y="8.684"/></svg><svg x="4104"><use xlink:href="#a"/><use xlink:href="#b" x="37.996" y="8.659"/><use xlink:href="#4" y="2.171"/><use xlink:href="#5" y="4.342"/><text x="1.002" y="10.354" class="f">▲</text><text x="3.006" y="10.354" class="g">~</text><text x="5.01" y="10.354" class="h">aws</text><text x="9.018" y="10.354" class="j">eks</text><text x="13.026" y="10.354" class="j">list-clusters</text><text x="27.054" y="10.354" class="i">--profile</text><text x="37.074" y="10.354" class="j">d</text></svg><svg x="4158"><use xlink:href="#a"/><use xlink:href="#b" x="38.996" y="8.659"/><use xlink:href="#4" y="2.171"/><use xlink:href="#5" y="4.342"/><text x="1.002" y="10.354" class="f">▲</text><text x="3.006" y="10.354" class="g">~</text><text x="5.01" y="10.354" class="h">aws</text><text x="9.018" y="10.354" class="j">eks</text><text x="13.026" y="10.354" class="j">list-clusters</text><text x="27.054" y="10.354" class="i">--profile</text><text x="37.074" y="10.354" class="j">de</text></svg><svg x="4212"><use xlink:href="#a"/><use xlink:href="#b" x="39.996" y="8.659"/><use xlink:href="#4" y="2.171"/><use xlink:href="#5" y="4.342"/><text x="1.002" y="10.354" class="f">▲</text><text x="3.006" y="10.354" class="g">~</text><text x="5.01" y="10.354" class="h">aws</text><text x="9.018" y="10.354" class="j">eks</text><text x="13.026" y="10.354" class="j">list-clusters</text><text x="27.054" y="10.354" class="i">--profile</text><text x="37.074" y="10.354" class="j">dev</text></svg><svg x="4266"><use xlink:href="#a"/><use xlink:href="#b" x="40.996" y="8.659"/><use xlink:href="#4" y="2.171"/><use xlink:href="#5" y="4.342"/><text x="1.002" y="10.354" class="f">▲</text><text x="3.006" y="10.354" class="g">~</text><text x="5.01" y="10.354" class="h">aws</text><text x="9.018" y="10.354" class="j">eks</text><text x="13.026" y="10.354" class="j">list-clusters</text><text x="27.054" y="10.354" class="i">--profile</text><text x="37.074" y="10.354" class="j">devo</text></svg><svg x="4320"><use xlink:href="#a"/><use xlink:href="#b" x="41.996" y="8.659"/><use xlink:href="#4" y="2.171"/><use xlink:href="#5" y="4.342"/><text x="1.002" y="10.354" class="f">▲</text><text x="3.006" y="10.354" class="g">~</text><text x="5.01" y="10.354" class="h">aws</text><text x="9.018" y="10.354" class="j">eks</text><text x="13.026" y="10.354" class="j">list-clusters</text><text x="27.054" y="10.354" class="i">--profile</text><text x="37.074" y="10.354" class="j">devop</text></svg><svg x="4374"><use xlink:href="#a"/><use xlink:href="#b" x="42.996" y="8.659"/><use xlink:href="#4" y="2.171"/><use xlink:href="#5" y="4.342"/><text x="1.002" y="10.354" class="f">▲</text><text x="3.006" y="10.354" class="g">~</text><text x="5.01" y="10.354" class="h">aws</text><text x="9.018" y="10.354" class="j">eks</text><text x="13.026" y="10.354" class="j">list-clusters</text><text x="27.054" y="10.354" class="i">--profile</text><text x="37.074" y="10.354" class="j">devops</text></svg><svg x="4428"><use xlink:href="#a"/><use xlink:href="#b" x="43.996" y="8.659"/><use xlink:href="#4" y="2.171"/><use xlink:href="#5" y="4.342"/><text x="1.002" y="10.354" class="f">▲</text><text x="3.006" y="10.354" class="g">~</text><text x="5.01" y="10.354" class="h">aws</text><text x="9.018" y="10.354" class="j">eks</text><text x="13.026" y="10.354" class="j">list-clusters</text><text x="27.054" y="10.354" class="i">--profile</text><text x="37.074" y="10.354" class="j">devops-</text></svg><svg x="4482"><use xlink:href="#a"/><use xlink:href="#b" x="44.996" y="8.659"/><use xlink:href="#4" y="2.171"/><use xlink:href="#5" y="4.342"/><text x="1.002" y="10.354" class="f">▲</text><text x="3.006" y="10.354" class="g">~</text><text x="5.01" y="10.354" class="h">aws</text><text x="9.018" y="10.354" class="j">eks</text><text x="13.026" y="10.354" class="j">list-clusters</text><text x="27.054" y="10.354" class="i">--profile</text><text x="37.074" y="10.354" class="j">devops-s</text></svg><svg x="4536"><use xlink:href="#a"/><use xlink:href="#b" x="45.996" y="8.659"/><use xlink:href="#4" y="2.171"/><use xlink:href="#5" y="4.342"/><text x="1.002" y="10.354" class="f">▲</text><text x="3.006" y="10.354" class="g">~</text><text x="5.01" y="10.354" class="h">aws</text><text x="9.018" y="10.354" class="j">eks</text><text x="13.026" y="10.354" class="j">list-clusters</text><text x="27.054" y="10.354" class="i">--profile</text><text x="37.074" y="10.354" class="j">devops-sa</text></svg><svg x="4590"><use xlink:href="#a"/><use xlink:href="#b" x="46.996" y="8.659"/><use xlink:href="#4" y="2.171"/><use xlink:href="#5" y="4.342"/><text x="1.002" y="10.354" class="f">▲</text><text x="3.006" y="10.354" class="g">~</text><text x="5.01" y="10.354" class="h">aws</text><text x="9.018" y="10.354" class="j">eks</text><text x="13.026" y="10.354" class="j">list-clusters</text><text x="27.054" y="10.354" class="i">--profile</text><text x="37.074" y="10.354" class="j">devops-san</text></svg><svg x="4644"><use xlink:href="#a"/><use xlink:href="#b" x="47.996" y="8.659"/><use xlink:href="#4" y="2.171"/><use xlink:href="#5" y="4.342"/><text x="1.002" y="10.354" class="f">▲</text><text x="3.006" y="10.354" class="g">~</text><text x="5.01" y="10.354" class="h">aws</text><text x="9.018" y="10.354" class="j">eks</text><text x="13.026" y="10.354" class="j">list-clusters</text><text x="27.054" y="10.354" class="i">--profile</text><text x="37.074" y="10.354" class="j">devops-sand</text></svg><svg x="4698"><use xlink:href="#a"/><use xlink:href="#b" x="48.996" y="8.659"/><use xlink:href="#4" y="2.171"/><use xlink:href="#5" y="4.342"/><text x="1.002" y="10.354" class="f">▲</text><text x="3.006" y="10.354" class="g">~</text><text x="5.01" y="10.354" class="h">aws</text><text x="9.018" y="10.354" class="j">eks</text><text x="13.026" y="10.354" class="j">list-clusters</text><text x="27.054" y="10.354" class="i">--profile</text><text x="37.074" y="10.354" class="j">devops-sandb</text></svg><svg x="4752"><use xlink:href="#a"/><use xlink:href="#b" x="49.996" y="8.659"/><use xlink:href="#4" y="2.171"/><use xlink:href="#5" y="4.342"/><text x="1.002" y="10.354" class="f">▲</text><text x="3.006" y="10.354" class="g">~</text><text x="5.01" y="10.354" class="h">aws</text><text x="9.018" y="10.354" class="j">eks</text><text x="13.026" y="10.354" class="j">list-clusters</text><text x="27.054" y="10.354" class="i">--profile</text><text x="37.074" y="10.354" class="j">devops-sandbo</text></svg><svg x="4806"><use xlink:href="#a"/><use xlink:href="#b" x="50.996" y="8.659"/><use xlink:href="#4" y="2.171"/><use xlink:href="#5" y="4.342"/><use xlink:href="#10" y="8.684"/></svg><svg x="4860"><use xlink:href="#a"/><use xlink:href="#b" x="50.996" y="8.659"/><use xlink:href="#4" y="2.171"/><use xlink:href="#5" y="4.342"/><use xlink:href="#10" y="8.684"/></svg><svg x="4914"><use xlink:href="#a"/><use xlink:href="#b" x="-.004" y="10.83"/><use xlink:href="#4" y="2.171"/><use xlink:href="#5" y="4.342"/><use xlink:href="#10" y="8.684"/></svg><svg x="4968"><use xlink:href="#a"/><use xlink:href="#b" x="-.004" y="10.83"/><use xlink:href="#4" y="2.171"/><use xlink:href="#5" y="4.342"/><use xlink:href="#10" y="8.684"/></svg><svg x="5022"><use xlink:href="#a"/><use xlink:href="#b" x="-.004" y="23.856"/><use xlink:href="#4" y="2.171"/><use xlink:href="#5" y="4.342"/><use xlink:href="#10" y="8.684"/><use xlink:href="#11" y="10.855"/><use xlink:href="#12" y="13.026"/><use xlink:href="#13" y="15.197"/><use xlink:href="#14" y="17.368"/><use xlink:href="#15" y="19.539"/><use xlink:href="#16" y="21.71"/></svg><svg x="5076"><use xlink:href="#a"/><use xlink:href="#b" x="-.004" y="23.856"/><use xlink:href="#4" y="2.171"/><use xlink:href="#5" y="4.342"/><use xlink:href="#10" y="8.684"/><use xlink:href="#11" y="10.855"/><use xlink:href="#12" y="13.026"/><use xlink:href="#13" y="15.197"/><use xlink:href="#14" y="17.368"/><use xlink:href="#15" y="19.539"/><use xlink:href="#16" y="21.71"/></svg><svg x="5130"><use xlink:href="#a"/><use xlink:href="#b" x="-.004" y="23.856"/><use xlink:href="#4" y="2.171"/><use xlink:href="#5" y="4.342"/><use xlink:href="#10" y="8.684"/><use xlink:href="#11" y="10.855"/><use xlink:href="#12" y="13.026"/><use xlink:href="#13" y="15.197"/><use xlink:href="#14" y="17.368"/><use xlink:href="#15" y="19.539"/><use xlink:href="#16" y="21.71"/></svg><svg x="5184"><use xlink:href="#a"/><use xlink:href="#b" x="4.996" y="26.027"/><use xlink:href="#4" y="2.171"/><use xlink:href="#5" y="4.342"/><use xlink:href="#10" y="8.684"/><use xlink:href="#11" y="10.855"/><use xlink:href="#12" y="13.026"/><use xlink:href="#13" y="15.197"/><use xlink:href="#14" y="17.368"/><use xlink:href="#15" y="19.539"/><use xlink:href="#16" y="21.71"/><use xlink:href="#1" y="26.052"/></svg><svg x="5238"><use xlink:href="#a"/><use xlink:href="#b" x="4.996" y="26.027"/><use xlink:href="#4" y="2.171"/><use xlink:href="#5" y="4.342"/><use xlink:href="#10" y="8.684"/><use xlink:href="#11" y="10.855"/><use xlink:href="#12" y="13.026"/><use xlink:href="#13" y="15.197"/><use xlink:href="#14" y="17.368"/><use xlink:href="#15" y="19.539"/><use xlink:href="#16" y="21.71"/><use xlink:href="#1" y="26.052"/></svg><svg x="5292"><use xlink:href="#a"/><use xlink:href="#b" x="4.996" y="26.027"/><use xlink:href="#4" y="2.171"/><use xlink:href="#5" y="4.342"/><use xlink:href="#10" y="8.684"/><use xlink:href="#11" y="10.855"/><use xlink:href="#12" y="13.026"/><use xlink:href="#13" y="15.197"/><use xlink:href="#14" y="17.368"/><use xlink:href="#15" y="19.539"/><use xlink:href="#16" y="21.71"/><use xlink:href="#1" y="26.052"/></svg><svg x="5346"><use xlink:href="#a"/><use xlink:href="#b" x="4.996" y="26.027"/><use xlink:href="#4" y="2.171"/><use xlink:href="#5" y="4.342"/><use xlink:href="#10" y="8.684"/><use xlink:href="#11" y="10.855"/><use xlink:href="#12" y="13.026"/><use xlink:href="#13" y="15.197"/><use xlink:href="#14" y="17.368"/><use xlink:href="#15" y="19.539"/><use xlink:href="#16" y="21.71"/><use xlink:href="#1" y="26.052"/></svg><svg x="5400"><use xlink:href="#a"/><use xlink:href="#b" x="50.996" y="26.027"/><use xlink:href="#4" y="2.171"/><use xlink:href="#5" y="4.342"/><use xlink:href="#10" y="8.684"/><use xlink:href="#11" y="10.855"/><use xlink:href="#12" y="13.026"/><use xlink:href="#13" y="15.197"/><use xlink:href="#14" y="17.368"/><use xlink:href="#15" y="19.539"/><use xlink:href="#16" y="21.71"/><use xlink:href="#10" y="26.052"/></svg><svg x="5454"><use xlink:href="#a"/><use xlink:href="#b" x="27.996" y="26.027"/><use xlink:href="#4" y="2.171"/><use xlink:href="#5" y="4.342"/><use xlink:href="#10" y="8.684"/><use xlink:href="#11" y="10.855"/><use xlink:href="#12" y="13.026"/><use xlink:href="#13" y="15.197"/><use xlink:href="#14" y="17.368"/><use xlink:href="#15" y="19.539"/><use xlink:href="#16" y="21.71"/><use xlink:href="#4" y="26.052"/></svg><svg x="5508"><use xlink:href="#a"/><use xlink:href="#b" x="27.996" y="26.027"/><use xlink:href="#4" y="2.171"/><use xlink:href="#5" y="4.342"/><use xlink:href="#10" y="8.684"/><use xlink:href="#11" y="10.855"/><use xlink:href="#12" y="13.026"/><use xlink:href="#13" y="15.197"/><use xlink:href="#14" y="17.368"/><use xlink:href="#15" y="19.539"/><use xlink:href="#16" y="21.71"/><use xlink:href="#4" y="26.052"/></svg><svg x="5562"><use xlink:href="#a"/><use xlink:href="#b" x="-.004" y="28.198"/><use xlink:href="#4" y="2.171"/><use xlink:href="#5" y="4.342"/><use xlink:href="#10" y="8.684"/><use xlink:href="#11" y="10.855"/><use xlink:href="#12" y="13.026"/><use xlink:href="#13" y="15.197"/><use xlink:href="#14" y="17.368"/><use xlink:href="#15" y="19.539"/><use xlink:href="#16" y="21.71"/><use xlink:href="#4" y="26.052"/></svg><svg x="5616"><use xlink:href="#a"/><use xlink:href="#b" x="-.004" y="28.198"/><use xlink:href="#4" y="2.171"/><use xlink:href="#5" y="4.342"/><use xlink:href="#10" y="8.684"/><use xlink:href="#11" y="10.855"/><use xlink:href="#12" y="13.026"/><use xlink:href="#13" y="15.197"/><use xlink:href="#14" y="17.368"/><use xlink:href="#15" y="19.539"/><use xlink:href="#16" y="21.71"/><use xlink:href="#4" y="26.052"/></svg><svg x="5670"><use xlink:href="#a"/><use xlink:href="#b" x="-.004" y="28.198"/><use xlink:href="#4"/><use xlink:href="#5" y="2.171"/><use xlink:href="#10" y="6.513"/><use xlink:href="#11" y="8.684"/><use xlink:href="#12" y="10.855"/><use xlink:href="#13" y="13.026"/><use xlink:href="#14" y="15.197"/><use xlink:href="#15" y="17.368"/><use xlink:href="#16" y="19.539"/><use xlink:href="#4" y="23.881"/><use xlink:href="#17" y="26.052"/></svg><svg x="5724"><use xlink:href="#a"/><use xlink:href="#b" x="-.004" y="28.198"/><use xlink:href="#4"/><use xlink:href="#5" y="2.171"/><use xlink:href="#10" y="6.513"/><use xlink:href="#11" y="8.684"/><use xlink:href="#12" y="10.855"/><use xlink:href="#13" y="13.026"/><use xlink:href="#14" y="15.197"/><use xlink:href="#15" y="17.368"/><use xlink:href="#16" y="19.539"/><use xlink:href="#4" y="23.881"/><use xlink:href="#17" y="26.052"/></svg><svg x="5778"><use xlink:href="#a"/><use xlink:href="#b" x="-.004" y="28.198"/><use xlink:href="#4"/><use xlink:href="#5" y="2.171"/><use xlink:href="#10" y="6.513"/><use xlink:href="#11" y="8.684"/><use xlink:href="#12" y="10.855"/><use xlink:href="#13" y="13.026"/><use xlink:href="#14" y="15.197"/><use xlink:href="#15" y="17.368"/><use xlink:href="#16" y="19.539"/><use xlink:href="#4" y="23.881"/><use xlink:href="#17" y="26.052"/></svg><svg x="5832"><use xlink:href="#a"/><use xlink:href="#b" x="-.004" y="28.198"/><use xlink:href="#4"/><use xlink:href="#5" y="2.171"/><use xlink:href="#10" y="6.513"/><use xlink:href="#11" y="8.684"/><use xlink:href="#12" y="10.855"/><use xlink:href="#13" y="13.026"/><use xlink:href="#14" y="15.197"/><use xlink:href="#15" y="17.368"/><use xlink:href="#16" y="19.539"/><use xlink:href="#4" y="23.881"/><use xlink:href="#17" y="26.052"/></svg><svg x="5886"><use xlink:href="#a"/><use xlink:href="#b" x="4.996" y="28.198"/><use xlink:href="#5"/><use xlink:href="#10" y="4.342"/><use xlink:href="#11" y="6.513"/><use xlink:href="#12" y="8.684"/><use xlink:href="#13" y="10.855"/><use xlink:href="#14" y="13.026"/><use xlink:href="#15" y="15.197"/><use xlink:href="#16" y="17.368"/><use xlink:href="#4" y="21.71"/><use xlink:href="#17" y="23.881"/><use xlink:href="#1" y="28.223"/></svg><svg x="5940"><use xlink:href="#a"/><use xlink:href="#b" x="4.996" y="28.198"/><use xlink:href="#5"/><use xlink:href="#10" y="4.342"/><use xlink:href="#11" y="6.513"/><use xlink:href="#12" y="8.684"/><use xlink:href="#13" y="10.855"/><use xlink:href="#14" y="13.026"/><use xlink:href="#15" y="15.197"/><use xlink:href="#16" y="17.368"/><use xlink:href="#4" y="21.71"/><use xlink:href="#17" y="23.881"/><use xlink:href="#1" y="28.223"/></svg><svg x="5994"><use xlink:href="#a"/><use xlink:href="#b" x="4.996" y="28.198"/><use xlink:href="#5"/><use xlink:href="#10" y="4.342"/><use xlink:href="#11" y="6.513"/><use xlink:href="#12" y="8.684"/><use xlink:href="#13" y="10.855"/><use xlink:href="#14" y="13.026"/><use xlink:href="#15" y="15.197"/><use xlink:href="#16" y="17.368"/><use xlink:href="#4" y="21.71"/><use xlink:href="#17" y="23.881"/><use xlink:href="#1" y="28.223"/></svg><svg x="6048"><use xlink:href="#a"/><use xlink:href="#b" x="4.996" y="28.198"/><use xlink:href="#5"/><use xlink:href="#10" y="4.342"/><use xlink:href="#11" y="6.513"/><use xlink:href="#12" y="8.684"/><use xlink:href="#13" y="10.855"/><use xlink:href="#14" y="13.026"/><use xlink:href="#15" y="15.197"/><use xlink:href="#16" y="17.368"/><use xlink:href="#4" y="21.71"/><use xlink:href="#17" y="23.881"/><use xlink:href="#1" y="28.223"/></svg><svg x="6102"><use xlink:href="#a"/><use xlink:href="#b" x="-.004" y="28.198"/><use xlink:href="#10" y="2.171"/><use xlink:href="#11" y="4.342"/><use xlink:href="#12" y="6.513"/><use xlink:href="#13" y="8.684"/><use xlink:href="#14" y="10.855"/><use xlink:href="#15" y="13.026"/><use xlink:href="#16" y="15.197"/><use xlink:href="#4" y="19.539"/><use xlink:href="#17" y="21.71"/><use xlink:href="#1" y="26.052"/></svg></svg></g></g></svg></svg>